HIERARCHY
ROOT Root
{
	OFFSET 0.00000 0.00000 0.00000
	CHANNELS 6 Xposition Yposition Zposition Zrotation Xrotation Yrotation
	JOINT Hip
	{
		OFFSET 0 0 0	
		CHANNELS 3 Zrotation Xrotation Yrotation
		JOINT Tummy
		{
			OFFSET 0 0.04 0	
			CHANNELS 3 Zrotation Xrotation Yrotation
			JOINT ChestBottom
			{
				OFFSET 0 0.194 0	
				CHANNELS 3 Zrotation Xrotation Yrotation
				JOINT ChestTop
				{
					OFFSET 0 0.166 0	
					CHANNELS 3 Zrotation Xrotation Yrotation
					JOINT LeftCollar
					{
						OFFSET 0 0.1 0	
						CHANNELS 3 Zrotation Xrotation Yrotation
						JOINT LeftUpperArm
						{
							OFFSET 0.156 -0.02 0.03	
							CHANNELS 3 Zrotation Xrotation Yrotation
							JOINT LeftForeArm
							{
								OFFSET 0.035 -0.27 -0.01	
								CHANNELS 3 Zrotation Xrotation Yrotation
								JOINT LeftHand
								{
									OFFSET 0.01 -0.27 0.01	
									CHANNELS 3 Zrotation Xrotation Yrotation
									End Site
									{
										OFFSET 0 -0.15 0
									}
								}
							}
						}
					}
					JOINT RightCollar
					{
						OFFSET 0 0.1 0	
						CHANNELS 3 Zrotation Xrotation Yrotation
						JOINT RightUpperArm
						{
							OFFSET -0.156 -0.02 0.03	
							CHANNELS 3 Zrotation Xrotation Yrotation
							JOINT RightForeArm
							{
								OFFSET -0.035 -0.27 -0.01	
								CHANNELS 3 Zrotation Xrotation Yrotation
								JOINT RightHand
								{
									OFFSET -0.01 -0.27 0.01	
									CHANNELS 3 Zrotation Xrotation Yrotation
									End Site
									{
										OFFSET 0 -0.15 0
									}
								}
							}
						}
					}
					JOINT Neck
					{
						OFFSET 0 0.1 0	
						CHANNELS 3 Zrotation Xrotation Yrotation
						JOINT Head
						{
							OFFSET 0 0.127 0.03	
							CHANNELS 3 Zrotation Xrotation Yrotation
							End Site
							{
								OFFSET 0 0.127 0.03
							}
						}
					}
				}
			}
		}
	}
	JOINT LeftHip
	{
		OFFSET 0 0 0	
		CHANNELS 3 Zrotation Xrotation Yrotation
		JOINT LeftThigh
		{
			OFFSET 0.088 -0.06 0	
			CHANNELS 3 Zrotation Xrotation Yrotation
			JOINT LeftLowerLeg
			{
				OFFSET 0 -0.39 0.02	
				CHANNELS 3 Zrotation Xrotation Yrotation
				JOINT LeftFootTop
				{
					OFFSET 0 -0.43 -0.02	
					CHANNELS 3 Zrotation Xrotation Yrotation
					JOINT LeftFootFront
					{
						OFFSET 0 -0.07 0.085	
						CHANNELS 3 Zrotation Xrotation Yrotation
						End Site
						{
							OFFSET 0 -0.005 0.09
						}
					}
				}
				JOINT LeftHeel
				{
					OFFSET 0 -0.43 -0.02	
					CHANNELS 3 Zrotation Xrotation Yrotation
					End Site
					{
						OFFSET 0 -0.075 -0.05
					}
				}
			}
		}
	}
	JOINT RightHip
	{
		OFFSET 0 0 0	
		CHANNELS 3 Zrotation Xrotation Yrotation
		JOINT RightThigh
		{
			OFFSET -0.088 -0.06 0	
			CHANNELS 3 Zrotation Xrotation Yrotation
			JOINT RightLowerLeg
			{
				OFFSET 0 -0.39 0.02	
				CHANNELS 3 Zrotation Xrotation Yrotation
				JOINT RightFootTop
				{
					OFFSET 0 -0.43 -0.02	
					CHANNELS 3 Zrotation Xrotation Yrotation
					JOINT RightFootFront
					{
						OFFSET 0 -0.07 0.085	
						CHANNELS 3 Zrotation Xrotation Yrotation
						End Site
						{
							OFFSET 0 -0.005 0.09
						}
					}
				}
				JOINT RightHeel
				{
					OFFSET 0 -0.43 -0.02	
					CHANNELS 3 Zrotation Xrotation Yrotation
					End Site
					{
						OFFSET 0 -0.075 -0.05
					}
				}
			}
		}
	}
}
MOTION
Frames: 25
Frame Time: 0.05
0 0.9567 0 -0 0 -0 -0.73227 0.42767 3.6232 0.032613 0.62204 0.38082 0.032613 0.62204 0.38082 0.027672 0.5225 0.31991 -0 0 -0 -0.37326 -5.4936 -5.4497 -0.30404 0.81554 -5.2204 -0.013417 7.4656 -1.2044 -0 0 -0 -0.89691 -5.851 0.5582 0.56762 -0.72781 2.0824 -2.0851 3.3736 6.712 0.70351 -1.5216 -2.6651 0.73953 -0.99517 -2.3516 -0.73227 0.42767 3.6232 1.9495 -1.4628 5.689 -0 0 -0 -0 0 -0 -0 0 -0 -0 0 -0 -0.73227 0.42767 3.6232 -1.6253 -0.27412 -5.6217 -0 0 -0 -0 0 -0 -0 0 -0 -0 0 -0 
0 0.9567 0 -0 0 -0 -0.76768 0.4343 3.6213 0.050144 0.59164 0.39629 0.050144 0.59164 0.39629 0.042396 0.49695 0.33292 -0 0 -0 -0.39 -5.4069 -5.5431 -0.31033 0.79651 -5.1953 0.0098047 7.4828 -1.1611 -0 0 -0 -0.8931 -5.7458 0.48171 0.56643 -0.75527 2.1273 -2.0988 3.3766 6.7165 0.69167 -1.4618 -2.7115 0.74242 -0.96089 -2.3846 -0.76768 0.4343 3.6213 1.9829 -1.4604 5.7248 -0 0 -0 -0 0 -0 -0 0 -0 -0 0 -0 -0.76768 0.4343 3.6213 -1.5906 -0.3243 -5.6294 -0 0 -0 -0 0 -0 -0 0 -0 -0 0 -0 
0 0.9567 0 -0 0 -0 -0.80432 0.43901 3.6246 0.07805 0.58001 0.40922 0.07805 0.58001 0.40922 0.06584 0.48717 0.3438 -0 0 -0 -0.44358 -5.3636 -5.6386 -0.30266 0.81174 -5.1353 0.034611 7.457 -1.1507 -0 0 -0 -0.91633 -5.7078 0.43011 0.56332 -0.76542 2.1499 -2.1115 3.3781 6.7192 0.65577 -1.4353 -2.7547 0.7301 -0.9442 -2.4165 -0.80432 0.43901 3.6246 2.018 -1.4567 5.7574 -0 0 -0 -0 0 -0 -0 0 -0 -0 0 -0 -0.80432 0.43901 3.6246 -1.5587 -0.36752 -5.6395 -0 0 -0 -0 0 -0 -0 0 -0 -0 0 -0 
0 0.9567 0 -0 0 -0 -0.84206 0.43797 3.6804 0.061849 0.58876 0.40311 0.061849 0.58875 0.40311 0.052231 0.49453 0.33865 -0 0 -0 -0.469 -5.274 -5.7613 -0.1936 0.73064 -5.0777 0.06371 7.4391 -1.1222 -0 0 -0 -0.80844 -5.7164 0.4121 0.54743 -0.76473 2.1809 -2.1106 3.3587 6.6819 0.63751 -1.4187 -2.7639 0.698 -0.92043 -2.4307 -0.84206 0.43797 3.6804 2.0668 -1.4429 5.7569 -0 0 -0 -0 0 -0 -0 0 -0 -0 0 -0 -0.84206 0.43797 3.6804 -1.5235 -0.35603 -5.6701 -0 0 -0 -0 0 -0 -0 0 -0 -0 0 -0 
0 0.9567 0 -0 0 -0 -0.85475 0.44118 3.7153 0.064833 0.62706 0.38903 0.064833 0.62706 0.38904 0.054746 0.5267 0.32684 -0 0 -0 -0.49953 -5.2158 -5.8832 -0.19927 0.67954 -4.9428 0.16909 7.3612 -1.1402 -0 0 -0 -0.76561 -5.8107 0.48306 0.51719 -0.76883 2.166 -2.1498 3.3441 6.6533 0.59861 -1.4331 -2.7314 0.66141 -0.90304 -2.4101 -0.85475 0.44118 3.7153 2.0682 -1.3924 5.7845 -0 0 -0 -0 0 -0 -0 0 -0 -0 0 -0 -0.85475 0.44118 3.7153 -1.4885 -0.40415 -5.7115 -0 0 -0 -0 0 -0 -0 0 -0 -0 0 -0 
0 0.9567 0 -0 0 -0 -0.86662 0.46106 3.7315 0.038209 0.65403 0.42628 0.038209 0.65403 0.42628 0.032422 0.54937 0.3581 -0 0 -0 -0.36636 -5.1332 -6.1493 -0.31837 0.6363 -4.7387 0.30469 7.223 -1.1482 -0 0 -0 -0.66478 -5.8907 0.42959 0.50144 -0.75564 2.1514 -2.1507 3.352 6.619 0.61163 -1.4576 -2.7812 0.65303 -0.90444 -2.4289 -0.86662 0.46106 3.7315 2.0916 -1.3701 5.7548 -0 0 -0 -0 0 -0 -0 0 -0 -0 0 -0 -0.86662 0.46106 3.7315 -1.471 -0.48298 -5.7177 -0 0 -0 -0 0 -0 -0 0 -0 -0 0 -0 
0 0.9567 0 -0 0 -0 -0.8879 0.44992 3.7595 0.016005 0.69927 0.44629 0.016005 0.69927 0.44629 0.01381 0.58738 0.3749 -0 0 -0 -0.31369 -5.179 -6.196 -0.38952 0.62909 -4.7108 0.44615 7.1989 -1.1614 -0 0 -0 -0.55045 -5.9848 0.39796 0.48788 -0.75692 2.1491 -2.1876 3.3494 6.6043 0.63611 -1.5361 -2.8113 0.65982 -0.94452 -2.4429 -0.8879 0.44992 3.7595 2.1326 -1.3458 5.7533 -0 0 -0 -0 0 -0 -0 0 -0 -0 0 -0 -0.8879 0.44992 3.7595 -1.4206 -0.52906 -5.7084 -0 0 -0 -0 0 -0 -0 0 -0 -0 0 -0 
0 0.9567 0 -0 0 -0 -0.87141 0.43967 3.7744 -0.0096156 0.70935 0.46699 -0.0096156 0.70935 0.46699 -0.0076886 0.59586 0.39226 -0 0 -0 -0.2656 -5.0933 -6.233 -0.38932 0.58412 -4.7215 0.45636 7.2141 -1.167 -0 0 -0 -0.44685 -5.9696 0.40292 0.45456 -0.74686 2.1087 -2.1947 3.3569 6.5792 0.65659 -1.5632 -2.8242 0.65944 -0.9628 -2.4388 -0.87141 0.43967 3.7744 2.1084 -1.3453 5.7567 -0 0 -0 -0 0 -0 -0 0 -0 -0 0 -0 -0.87141 0.43967 3.7744 -1.4479 -0.43074 -5.6664 -0 0 -0 -0 0 -0 -0 0 -0 -0 0 -0 
0 0.9567 0 -0 0 -0 -0.87513 0.46028 3.8216 -0.016474 0.71033 0.45728 -0.016474 0.71033 0.45728 -0.013457 0.59669 0.3841 -0 0 -0 -0.16869 -4.9967 -6.172 -0.45806 0.50881 -4.7545 0.47842 7.2463 -1.1705 -0 0 -0 -0.38313 -5.9531 0.42962 0.44642 -0.73867 2.0762 -2.2141 3.3561 6.5947 0.5981 -1.5475 -2.7703 0.59487 -0.9468 -2.3924 -0.87513 0.46028 3.8216 2.1287 -1.311 5.7154 -0 0 -0 -0 0 -0 -0 0 -0 -0 0 -0 -0.87513 0.46028 3.8216 -1.4346 -0.41042 -5.6771 -0 0 -0 -0 0 -0 -0 0 -0 -0 0 -0 
0 0.9567 0 -0 0 -0 -0.90807 0.46619 3.9172 -0.016038 0.70009 0.42737 -0.016038 0.70008 0.42737 -0.013121 0.58808 0.35897 -0 0 -0 -0.12739 -4.9106 -6.0571 -0.42344 0.44626 -4.8227 0.49955 7.2971 -1.1598 -0 0 -0 -0.31494 -5.8942 0.42722 0.45313 -0.72322 2.0901 -2.2275 3.3578 6.6177 0.60232 -1.5565 -2.7378 0.5988 -0.96468 -2.385 -0.90807 0.46619 3.9172 2.1674 -1.2707 5.6565 -0 0 -0 -0 0 -0 -0 0 -0 -0 0 -0 -0.90807 0.46619 3.9172 -1.3885 -0.33308 -5.7298 -0 0 -0 -0 0 -0 -0 0 -0 -0 0 -0 
0 0.9567 0 -0 0 -0 -0.97355 0.45817 4.0419 0.021796 0.76382 0.44702 0.021796 0.76382 0.44702 0.018709 0.6416 0.37551 -0 0 -0 -0.19699 -4.9789 -6.2112 -0.36708 0.34602 -4.7479 0.53792 7.307 -1.1584 -0 0 -0 -0.33753 -6.0248 0.24734 0.42697 -0.68847 2.1855 -2.1954 3.3887 6.645 0.67434 -1.5727 -2.796 0.70318 -0.92672 -2.4281 -0.97355 0.45817 4.0419 2.2422 -1.258 5.6175 -0 0 -0 -0 0 -0 -0 0 -0 -0 0 -0 -0.97355 0.45817 4.0419 -1.2752 -0.26191 -5.7815 -0 0 -0 -0 0 -0 -0 0 -0 -0 0 -0 
0 0.9567 0 -0 0 -0 -1.0312 0.48657 4.2339 0.03685 0.78529 0.44045 0.03685 0.78529 0.44045 0.031359 0.65963 0.37001 -0 0 -0 -0.37395 -5.039 -6.4491 -0.25212 0.36726 -4.5093 0.66155 7.2844 -1.1519 -0 0 -0 -0.32136 -6.0392 0.11003 0.4163 -0.66469 2.3334 -2.1642 3.4138 6.6838 0.74311 -1.6404 -2.8002 0.78485 -0.97599 -2.4387 -1.0312 0.48657 4.2339 2.4233 -1.3071 5.6206 -0 0 -0 -0 0 -0 -0 0 -0 -0 0 -0 -1.0312 0.48657 4.2339 -1.1309 -0.18508 -5.8697 -0 0 -0 -0 0 -0 -0 0 -0 -0 0 -0 
0 0.9567 0 -0 0 -0 -1.108 0.53663 4.5439 0.047073 0.81032 0.44202 0.047073 0.81032 0.44202 0.039961 0.68064 0.37133 -0 0 -0 -0.54382 -5.0859 -6.8506 -0.17648 0.37994 -4.1548 0.84724 7.1825 -1.1387 -0 0 -0 -0.30353 -6.0635 -0.11489 0.41814 -0.61592 2.6482 -2.1224 3.4298 6.7511 0.81059 -1.8154 -2.8009 0.86205 -1.1296 -2.4392 -1.108 0.53663 4.5439 2.6552 -1.4197 5.8134 -0 0 -0 -0 0 -0 -0 0 -0 -0 0 -0 -1.108 0.53663 4.5439 -1.0218 -0.16119 -6.0222 -0 0 -0 -0 0 -0 -0 0 -0 -0 0 -0 
0 0.9567 0 -0 0 -0 -1.168 0.59443 4.9784 0.012404 0.84201 0.47417 0.012405 0.84201 0.47417 0.010888 0.70728 0.39831 -0 0 -0 -0.72015 -5.0492 -7.4083 0.06304 0.37808 -3.7394 0.96409 7.1455 -1.159 -0 0 -0 -0.20943 -6.062 -0.34537 0.52041 -0.47622 3.3918 -2.0685 3.4622 7.0039 1.0821 -2.0438 -2.7331 1.1068 -1.3291 -2.3481 -1.168 0.59443 4.9784 2.8882 -1.5628 6.0972 -0 0 -0 -0 0 -0 -0 0 -0 -0 0 -0 -1.168 0.59443 4.9784 -0.88886 -0.20408 -6.2709 -0 0 -0 -0 0 -0 -0 0 -0 -0 0 -0 
0 0.9567 0 -0 0 -0 -1.2186 0.67132 5.5478 0.015126 0.88821 0.53412 0.015126 0.88821 0.53412 0.013262 0.74609 0.44867 -0 0 -0 -0.98706 -4.9863 -8.0731 0.32766 0.44288 -3.2428 1.1709 7.0479 -1.1766 -0 0 -0 -0.21733 -5.9804 -0.43273 0.7935 -0.36911 4.7406 -1.8215 3.4834 7.2032 1.3113 -2.3794 -2.388 1.3426 -1.6231 -1.9564 -1.2186 0.67132 5.5478 3.1533 -1.8158 6.3715 -0 0 -0 -0 0 -0 -0 0 -0 -0 0 -0 -1.2186 0.67132 5.5478 -0.73478 -0.33257 -6.5961 -0 0 -0 -0 0 -0 -0 0 -0 -0 0 -0 
0 0.9567 0 -0 0 -0 -1.1792 0.85915 6.2023 0.0087077 0.91191 0.63385 0.0087077 0.91191 0.63384 0.0079923 0.766 0.53243 -0 0 -0 -1.0342 -4.8905 -8.7009 0.41606 0.34707 -2.6883 1.2747 6.9706 -1.139 -0 0 -0 -0.24409 -5.7234 -0.28713 1.3781 -0.6434 6.7926 -1.3831 3.4825 7.0107 1.5738 -2.8178 -1.5716 1.607 -2.0374 -1.0601 -1.1792 0.85915 6.2023 3.3047 -2.2227 6.7934 -0 0 -0 -0 0 -0 -0 0 -0 -0 0 -0 -1.1792 0.85915 6.2023 -0.69826 -0.59694 -6.9292 -0 0 -0 -0 0 -0 -0 0 -0 -0 0 -0 
0 0.9567 0 -0 0 -0 -0.97513 1.1874 7.0608 0.007391 0.90492 0.7566 0.0073907 0.90492 0.7566 0.0070113 0.76013 0.63554 -0 0 -0 -1.1685 -4.9617 -9.2868 0.45646 0.43227 -2.2983 1.2921 6.9056 -1.1153 -0 0 -0 -0.36247 -5.3334 0.58466 2.1316 -1.3098 9.6774 -1.0953 3.3009 6.854 1.827 -3.1422 -0.17814 1.8675 -2.362 0.43331 -0.97513 1.1874 7.0608 3.3224 -2.6647 7.0806 -0 0 -0 -0 0 -0 -0 0 -0 -0 0 -0 -0.97513 1.1874 7.0608 -0.89219 -1.0272 -7.4508 -0 0 -0 -0 0 -0 -0 0 -0 -0 0 -0 
0 0.9567 0 -0 0 -0 -0.73034 1.6455 8.1899 0.026544 0.86815 0.90742 0.026544 0.86815 0.90742 0.023221 0.72922 0.76225 -0 0 -0 -1.1025 -4.9443 -9.9808 0.27371 0.31271 -1.9639 1.2067 6.8057 -1.0019 -0 0 -0 -0.47402 -4.6647 2.8008 2.9388 -2.5624 12.327 -0.86208 3.0986 7.053 2.1178 -3.3641 1.634 2.1842 -2.6069 2.3695 -0.73034 1.6455 8.1899 3.1846 -3.1781 7.2239 -0 0 -0 -0 0 -0 -0 0 -0 -0 0 -0 -0.73034 1.6455 8.1899 -0.98187 -1.6745 -8.2045 -0 0 -0 -0 0 -0 -0 0 -0 -0 0 -0 
0 0.9567 0 -0 0 -0 -0.4635 2.1627 9.6121 0.097153 0.87855 1.0442 0.097153 0.87855 1.0442 0.082684 0.73786 0.87719 -0 0 -0 -1.006 -5.0288 -10.583 -0.073506 -0.031731 -1.8228 1.1189 6.7613 -0.82532 -0 0 -0 -0.69354 -3.9501 5.8839 3.9858 -4.6702 13.929 -0.13503 2.7378 5.7677 2.4605 -3.8689 4.0786 2.6002 -3.0936 4.9245 -0.4635 2.1627 9.6121 2.9168 -3.7184 7.3533 -0 0 -0 -0 0 -0 -0 0 -0 -0 0 -0 -0.4635 2.1627 9.6121 -1.0603 -2.3361 -9.0604 -0 0 -0 -0 0 -0 -0 0 -0 -0 0 -0 
0 0.9567 0 -0 0 -0 0.28481 3.0621 11.466 0.027295 0.8927 1.183 0.027295 0.8927 1.183 0.024167 0.74983 0.99374 -0 0 -0 -1.0899 -5.2774 -11.136 -0.24329 -0.45264 -1.9372 0.98782 6.646 -0.72218 -0 0 -0 -1.021 -3.6773 8.3633 4.9964 -6.5504 16.758 0.51615 1.9071 3.7672 2.9757 -4.7423 7.463 3.0787 -3.9412 8.4186 0.28481 3.0621 11.466 2.0692 -4.4072 7.1144 -0 0 -0 -0 0 -0 -0 0 -0 -0 0 -0 0.28481 3.0621 11.466 -1.8389 -3.3749 -10.067 -0 0 -0 -0 0 -0 -0 0 -0 -0 0 -0 
0 0.9567 0 -0 0 -0 1.1028 4.5597 14.15 -0.087099 0.83914 1.221 -0.087099 0.83913 1.221 -0.071961 0.705 1.0255 -0 0 -0 -1.1145 -5.7188 -12.111 -0.5953 -1.2472 -1.7579 0.66384 6.4826 -0.54404 -0 0 -0 -1.5032 -3.9597 10.594 6.0665 -7.9711 20.187 0.95263 1.8052 3.1155 3.3799 -5.8624 11.388 3.4084 -5.0973 12.374 1.1028 4.5597 14.15 0.93773 -5.3021 6.1151 -0 0 -0 -0 0 -0 -0 0 -0 -0 0 -0 1.1028 4.5597 14.15 -2.9196 -5.5721 -11.973 -0 0 -0 -0 0 -0 -0 0 -0 -0 0 -0 
0 0.9567 0 -0 0 -0 1.4056 6.1419 17.846 0.052821 0.78712 1.0729 0.052821 0.78712 1.0729 0.04536 0.66112 0.90131 -0 0 -0 -1.7602 -6.2878 -13.067 -1.1545 -2.4273 -1.8377 0.15461 6.1863 -0.21173 -0 0 -0 -2.2607 -4.1467 13.693 7.0287 -9.3787 22.291 1.3148 1.7262 1.9111 3.3221 -7.2982 15.018 3.4774 -6.5851 15.885 1.4056 6.1419 17.846 -0.017577 -6.5144 5.035 -0 0 -0 -0 0 -0 -0 0 -0 -0 0 -0 1.4056 6.1419 17.846 -3.9368 -9.2118 -15.424 -0 0 -0 -0 0 -0 -0 0 -0 -0 0 -0 
0 0.9567 0 -0 0 -0 1.2012 7.1785 21.903 0.18879 0.87793 1.042 0.18879 0.87793 1.042 0.15965 0.73723 0.87545 -0 0 -0 -2.211 -6.8913 -13.934 -1.9588 -3.9768 -2.6947 -0.2653 6.2799 -0.31289 -0 0 -0 -2.7707 -4.3832 17.613 7.2477 -10.332 23.316 1.3986 2.1104 1.5959 3.4689 -8.869 17.375 3.7576 -8.0792 18.213 1.2012 7.1785 21.903 -0.56094 -7.3018 4.2632 -0 0 -0 -0 0 -0 -0 0 -0 -0 0 -0 1.2012 7.1785 21.903 -4.3665 -13.741 -19.402 -0 0 -0 -0 0 -0 -0 0 -0 -0 0 -0 
0 0.9567 0 -0 0 -0 1.1959 7.7839 25.827 -0.086829 0.92549 1.2523 -0.08683 0.92548 1.2522 -0.071577 0.77754 1.0518 -0 0 -0 -1.5918 -6.5681 -15.078 -2.9303 -6.3448 -3.9317 -0.59168 6.7552 -0.83626 -0 0 -0 -2.2396 -4.3035 21.975 7.1037 -11.467 22.164 0.83311 2.8383 2.7834 4.1596 -10.175 18.203 4.2655 -9.3214 19.209 1.1959 7.7839 25.827 -1.2779 -7.3527 3.0243 -0 0 -0 -0 0 -0 -0 0 -0 -0 0 -0 1.1959 7.7839 25.827 -3.7933 -17.47 -20.12 -0 0 -0 -0 0 -0 -0 0 -0 -0 0 -0 
0 0.9567 0 -0 0 -0 1.3004 8.1629 29.755 -0.48668 1.1006 1.4276 -0.48668 1.1006 1.4276 -0.40696 0.92529 1.1985 -0 0 -0 -0.74333 -6.4333 -14.978 -4.1216 -8.8925 -6.041 -0.83998 7.1583 -1.0792 -0 0 -0 -1.3222 -4.6475 24.689 7.1643 -12.795 21.863 0.62831 2.726 2.5473 4.8801 -11.613 18.295 4.7013 -10.587 19.43 1.3004 8.1629 29.755 -2.1683 -7.0457 1.1067 -0 0 -0 -0 0 -0 -0 0 -0 -0 0 -0 1.3004 8.1629 29.755 -1.9659 -20.397 -17.266 -0 0 -0 -0 0 -0 -0 0 -0 -0 0 -0 
